<?xml version="1.0" encoding="utf-8"?>
<!-- Generator: Adobe Illustrator 19.1.0, SVG Export Plug-In . SVG Version: 6.00 Build 0)  -->
<svg version="1.1" xmlns="http://www.w3.org/2000/svg" xmlns:xlink="http://www.w3.org/1999/xlink" x="0px" y="0px"
	 viewBox="0 0 64 64" style="enable-background:new 0 0 64 64;" xml:space="preserve">
<style type="text/css">
	.st0{fill:#C75C5C;}
	.st1{opacity:0.2;}
	.st2{fill:#231F20;}
	.st3{fill:#F5CF87;}
	.st4{fill:#E0995E;}
</style>
<g id="Layer_1">
	<g>
		<circle class="st0" cx="32" cy="32" r="32"/>
	</g>
	<g class="st1">
		<path class="st2" d="M32,56c0,0-18-6.8-18-21.5V20.9c0,0,5.8-6.9,18-6.9V56z"/>
	</g>
	<g class="st1">
		<path class="st2" d="M32,56c0,0,18-6.8,18-21.5V20.9c0,0-5.8-6.9-18-6.9V56z"/>
	</g>
	<g>
		<path class="st3" d="M32,54c0,0-18-6.8-18-21.5V18.9c0,0,5.8-6.9,18-6.9V54z"/>
	</g>
	<g>
		<path class="st4" d="M32,54c0,0,18-6.8,18-21.5V18.9c0,0-5.8-6.9-18-6.9V54z"/>
	</g>
</g>
<g id="Layer_2">
</g>
</svg>
