<svg xmlns="http://www.w3.org/2000/svg" viewBox="0 0 122.72 122.88"><defs><style>.a{fill:#019833;}.b{fill:#66fe98;}.c{fill:#45fe02;}.d{fill:#017d17;}.e{fill:#005d04;}.f{fill:#fefefe;}.g{fill:gray;}.h{fill:#ccc;}</style></defs><title>vim</title><polygon class="a" points="61.49 0.94 0.93 61.3 61.49 121.95 121.78 61.3 61.49 0.94 61.49 0.94"/><polygon class="b" points="61.48 6.48 61.48 1.38 1.33 61.31 6.49 61.31 61.48 6.48 61.48 6.48"/><polygon class="c" points="61.48 6.48 61.48 1.38 121.83 61.31 116.25 61.31 61.48 6.48 61.48 6.48"/><polygon class="d" points="61.48 116.41 61.48 122.05 1.33 61.31 6.49 61.31 61.48 116.41 61.48 116.41"/><polygon class="e" points="61.48 116.41 61.48 122.05 121.83 61.31 116.25 61.31 61.48 116.41 61.48 116.41"/><polygon points="31.27 110.54 19.61 110.54 15.05 106.1 15.05 21.36 11.44 21.36 8.34 18.26 8.34 8.78 11.55 5.31 52.33 5.31 56 8.98 56 17.97 52.95 21.68 49.87 21.68 49.87 50.33 78.86 21.68 77.25 21.68 73.87 18.05 73.87 8.51 77.19 5.47 118.35 5.47 121.61 8.73 121.61 17.75 31.27 110.54 31.27 110.54"/><path d="M61.48,122.88,0,61.31,61.48,0l61.24,61.31L61.48,122.88ZM1.88,61.31,61.48,121l59.35-59.69L61.48,1.89,1.88,61.31Z"/><polygon class="f" points="51.81 10.9 53.62 9.73 51.77 7.81 12.54 7.81 10.54 9.81 10.54 17.36 12.76 19.57 13.81 17.36 12.42 15.97 12.42 10.64 13.46 9.72 50.5 9.77 51.81 10.9 51.81 10.9"/><polygon class="f" points="19.87 17.18 19.87 105.54 21.12 106.72 20.12 108.6 17.51 106.03 17.51 19.47 19.87 17.18 19.87 17.18"/><polygon class="g" points="13.54 17.18 12.76 19.57 17.49 19.57 20.23 17.18 13.54 17.18 13.54 17.18"/><path class="f" d="M79.83,17.21,78.17,16V11.29L79.9,9.56h36.17l1.39,1.85,2-1.56L117.4,8H78.52L76.58,9.93v7.61l2,1.85,1.21-2.18ZM47.17,56l-3.78,9.17L86,22.33l-.21-5.18L47.17,56Z"/><polygon class="g" points="51.72 10.87 53.62 9.73 53.62 17.18 51.45 19.34 47.24 19.34 47.17 55.97 43.41 65.12 43.41 17.18 50.43 17.18 51.74 16.11 51.72 10.87 51.72 10.87"/><polygon class="g" points="117.33 10.89 119.43 9.85 119.43 16.65 29.92 108.6 20.12 108.6 21.08 106.8 28.6 106.8 117.34 15.04 117.33 10.89 117.33 10.89"/><path class="g" d="M85.82,17.15l-2.18,2.19-5,.05,1.23-2.2,6,0Z"/><polygon class="h" points="79.56 9.49 78.18 10.87 78.18 15.97 79.39 17.18 85.8 17.18 85.8 22.1 43.39 65.14 43.39 17.24 50.44 17.24 51.89 15.79 51.89 10.64 50.55 9.61 13.47 9.61 12.25 10.82 12.25 16.09 13.49 17.32 19.94 17.32 19.94 105.53 21.15 106.74 28.48 106.74 117.34 14.92 117.34 10.87 115.96 9.49 79.56 9.49 79.56 9.49"/><path class="g" d="M28.53,106.86H21.1l-1.28-1.29V17.44H13.44l-1.3-1.3V10.77l1.28-1.28H50.59L52,10.58v5.26l-1.51,1.52h-7V64.85l42.17-42.8V17.3H79.34L78.06,16V10.83l1.45-1.46H116l1.45,1.46V15l0,0-88.9,91.86Zm-7.33-.24h7.23l88.8-91.74v-4L115.91,9.6H79.61l-1.32,1.32v5l1.15,1.14h6.48v5.09l0,0L43.28,65.43V17.12h7.11l1.38-1.37V10.7l-1.26-1h-37l-1.15,1.15V16l1.17,1.17h6.51v88.27l1.15,1.14Z"/><path class="h" d="M64.51,68.94a.66.66,0,0,0-.19.09L62.6,70.51a.62.62,0,0,0-.11.17L60.77,75.5a.41.41,0,0,0,.1.42l1.31,1.31a.35.35,0,0,0,.28.11h5.31a.33.33,0,0,0,.28-.11l1.39-1.39a.4.4,0,0,0,.1-.18L71,70.59a.4.4,0,0,0-.1-.39l-1.15-1.15a.39.39,0,0,0-.28-.11h-5ZM54.78,82.53a.37.37,0,0,0-.3.29l-.66,2.61a.41.41,0,0,0,.29.49h3.22l-7.75,22.14a.4.4,0,0,0,.25.51l.13,0H61.23a.4.4,0,0,0,.38-.28l.74-2.37a.39.39,0,0,0-.26-.5.25.25,0,0,0-.12,0H59.42l7.66-22.38a.39.39,0,0,0-.25-.5l-.12,0H54.78Zm35.87.08a.42.42,0,0,0-.22.13l-2.35,2.65H84.35l-2.48-2.58a.4.4,0,0,0-.29-.12h-8.9a.41.41,0,0,0-.38.26l-.82,2.45a.4.4,0,0,0,.25.51l.13,0h2.38l-7.42,21.9a.39.39,0,0,0,.25.5.27.27,0,0,0,.13,0h9.48a.38.38,0,0,0,.37-.26l.73-2.13a.4.4,0,0,0-.25-.51l-.12,0H75.75l4.73-14.91H89l-5.39,17.32a.4.4,0,0,0,.26.5h9.27a.38.38,0,0,0,.36-.24l.82-2a.4.4,0,0,0-.22-.52.35.35,0,0,0-.14,0H92.34l4.81-15.17h8.15l-5.48,17.41a.41.41,0,0,0,.27.5h10.17a.37.37,0,0,0,.37-.25l.82-2.13a.4.4,0,0,0-.24-.52l-.13,0h-2l6.06-19.69a.41.41,0,0,0-.06-.37l-1.88-2.53a.41.41,0,0,0-.32-.15h-7.19a.42.42,0,0,0-.3.12l-2.26,2.49h-4l-2.35-2.57a.4.4,0,0,0-.29-.12H90.65Z"/><path d="M61.53,77.91a1.32,1.32,0,0,0,.91.37h5.32a1.33,1.33,0,0,0,1-.39L70.1,76.5a1.34,1.34,0,0,0,.34-.57l1.48-5.08a1.37,1.37,0,0,0-.34-1.32l-1.16-1.15a1.28,1.28,0,0,0-.93-.38H64.31a1.48,1.48,0,0,0-.6.3L62,69.8l0,0a1.32,1.32,0,0,0-.36.56l-1.72,4.81a1.35,1.35,0,0,0,.31,1.39l1.33,1.33Zm7.74-8,.76.75-1.35,4.64-1.13,1.14H62.68l-.91-.91,1.56-4.38,1.45-1.24Z"/><path d="M115.83,84.81,114,82.28l0,0a1.36,1.36,0,0,0-1.06-.51H105.7a1.31,1.31,0,0,0-1,.41l-2,2.21H99.58L97.51,82.1l0,0a1.32,1.32,0,0,0-1-.41H90.46a1.33,1.33,0,0,0-.73.43l-2.07,2.34H84.75l-2.21-2.3a1.36,1.36,0,0,0-1-.41H72.67a1.34,1.34,0,0,0-1.25.88l-.83,2.47a1.36,1.36,0,0,0,.85,1.7,1.84,1.84,0,0,0,.42.07h1.08l-7,20.66a1.34,1.34,0,0,0,.84,1.69,1.25,1.25,0,0,0,.43.07h9.48a1.34,1.34,0,0,0,1.26-.9l.73-2.14a1.34,1.34,0,0,0-.84-1.69,1.48,1.48,0,0,0-.42-.07H77l4.14-13h6.6l-5,16.11a1.33,1.33,0,0,0,.88,1.67,1.39,1.39,0,0,0,.4.06h9.16a1.32,1.32,0,0,0,1.22-.82l.82-2a1.33,1.33,0,0,0-.74-1.73,1.53,1.53,0,0,0-.49-.1h-.38l4.22-13.29H104l-5.09,16.2a1.33,1.33,0,0,0,1.27,1.72h10a1.35,1.35,0,0,0,1.26-.85l.82-2.15a1.35,1.35,0,0,0-.8-1.72,1.33,1.33,0,0,0-.45-.08h-.73L116,86a1.33,1.33,0,0,0-.2-1.22Zm-8,21.56h2.47l-.4,1h-9l5.64-17.92H96.47l-5.41,17h2.12l-.36.88H84.76l5.56-17.84H79.79l-5.32,16.79h2.18l-.36,1H68L75.55,85H72.61l.45-1.36h8.29l2.6,2.7h4.56L91,83.55H96.3l2.45,2.69h4.79l2.38-2.61h6.7l1.55,2.08-6.35,20.66Z"/><path d="M62.36,104.55a1.76,1.76,0,0,0-.39-.06H60.73L68,83.35a1.33,1.33,0,0,0-.84-1.69,1.42,1.42,0,0,0-.42-.07H54.58a1.33,1.33,0,0,0-1,1l-.66,2.62a1.34,1.34,0,0,0,1,1.62,1.75,1.75,0,0,0,.32,0H56l-7.32,20.9a1.36,1.36,0,0,0,.85,1.7,1.42,1.42,0,0,0,.42.06H61.24a1.33,1.33,0,0,0,1.27-.93l.74-2.38a1.34,1.34,0,0,0-.89-1.67Zm-11.64,3.11L58.65,85H54.9l.38-1.53H66l-7.84,22.91h3.13l-.4,1.29Z"/></svg>