<?xml version="1.0" encoding="UTF-8" standalone="no"?>
<!-- Created with Inkscape (http://www.inkscape.org/) -->

<svg
   xmlns:dc="http://purl.org/dc/elements/1.1/"
   xmlns:cc="http://creativecommons.org/ns#"
   xmlns:rdf="http://www.w3.org/1999/02/22-rdf-syntax-ns#"
   xmlns:svg="http://www.w3.org/2000/svg"
   xmlns="http://www.w3.org/2000/svg"
   xmlns:xlink="http://www.w3.org/1999/xlink"
   xmlns:sodipodi="http://sodipodi.sourceforge.net/DTD/sodipodi-0.dtd"
   xmlns:inkscape="http://www.inkscape.org/namespaces/inkscape"
   width="50"
   height="22"
   id="svg2"
   version="1.1"
   inkscape:version="0.48.4 r9939"
   sodipodi:docname="Toolbaricon RegEx.svg">
  <defs
     id="defs4">
    <linearGradient
       id="linearGradient3757">
      <stop
         style="stop-color:#7a7a7a;stop-opacity:1;"
         offset="0"
         id="stop3759" />
      <stop
         style="stop-color:#4d4d4d;stop-opacity:1;"
         offset="1"
         id="stop3761" />
    </linearGradient>
    <linearGradient
       inkscape:collect="always"
       xlink:href="#linearGradient3757"
       id="linearGradient3789"
       x1="-0.44129017"
       y1="942.17102"
       x2="334.68488"
       y2="942.17102"
       gradientUnits="userSpaceOnUse"
       gradientTransform="translate(32.878197,21.71455)" />
    <linearGradient
       inkscape:collect="always"
       xlink:href="#linearGradient3757"
       id="linearGradient3793"
       gradientUnits="userSpaceOnUse"
       gradientTransform="matrix(0.11796532,0,0,0.11796532,5.2854235,930.64051)"
       x1="-0.44129017"
       y1="942.17102"
       x2="334.68488"
       y2="942.17102" />
  </defs>
  <sodipodi:namedview
     id="base"
     pagecolor="#ffffff"
     bordercolor="#666666"
     borderopacity="1.0"
     inkscape:pageopacity="0.0"
     inkscape:pageshadow="2"
     inkscape:zoom="11.313708"
     inkscape:cx="23.213607"
     inkscape:cy="14.927881"
     inkscape:document-units="px"
     inkscape:current-layer="layer1"
     showgrid="false"
     inkscape:window-width="1366"
     inkscape:window-height="691"
     inkscape:window-x="0"
     inkscape:window-y="24"
     inkscape:window-maximized="1" />
  <metadata
     id="metadata7">
    <rdf:RDF>
      <cc:Work
         rdf:about="">
        <dc:format>image/svg+xml</dc:format>
        <dc:type
           rdf:resource="http://purl.org/dc/dcmitype/StillImage" />
        <dc:title></dc:title>
      </cc:Work>
    </rdf:RDF>
  </metadata>
  <g
     inkscape:label="Calque 1"
     inkscape:groupmode="layer"
     id="layer1"
     transform="translate(0,-1030.3622)">
    <g
       style="font-size:7.66353607px;font-style:normal;font-variant:normal;font-weight:normal;font-stretch:normal;text-align:start;line-height:125%;letter-spacing:-0.00319313px;word-spacing:0px;writing-mode:lr-tb;text-anchor:start;fill:url(#linearGradient3793);fill-opacity:1;stroke:#000000;stroke-width:0.29491332;stroke-miterlimit:4;font-family:Droid Serif;-inkscape-font-specification:Droid Serif"
       id="text2985">
      <path
         d="m 13.620933,1044.117 c 0.270243,0.4261 0.5327,0.7458 0.787371,0.9589 0.254651,0.213 0.550889,0.3196 0.888715,0.3196 l 0.04678,0 0,0.6704 -0.226077,0 c -0.498938,0 -0.909514,-0.018 -1.231729,-0.055 -0.317036,-0.036 -0.587288,-0.1065 -0.810758,-0.2104 -0.223486,-0.104 -0.415781,-0.2495 -0.576886,-0.4366 -0.155922,-0.1871 -0.32483,-0.4314 -0.506723,-0.7328 l -2.1594236,-3.5938 -1.3252777,0 0,3.2898 c -3.8e-6,0.2338 0.033778,0.4235 0.1013447,0.5691 0.072757,0.1403 0.168904,0.2468 0.2884428,0.3196 0.1195307,0.073 0.2572555,0.1221 0.4131749,0.1481 0.1611075,0.021 0.3300153,0.031 0.5067238,0.031 l 0.2104851,0 0,0.6704 -4.6462677,0 0,-0.6704 0.2026895,0 c 0.1767027,0 0.3430119,-0.01 0.4989281,-0.031 0.1611108,-0.026 0.3014341,-0.075 0.4209706,-0.1481 0.119533,-0.073 0.2130819,-0.1793 0.2806471,-0.3196 0.072758,-0.1456 0.1091384,-0.3353 0.1091405,-0.5691 l 0,-7.9049 c -2.1e-6,-0.2339 -0.036382,-0.421 -0.1091405,-0.5613 -0.067565,-0.1455 -0.1611141,-0.2573 -0.2806471,-0.3352 -0.1195365,-0.078 -0.2598598,-0.1274 -0.4209706,-0.1482 -0.1559162,-0.026 -0.3222254,-0.039 -0.4989281,-0.039 l -0.2026895,0 0,-0.6705 4.2954591,0 c 1.3824406,0 2.4114786,0.2573 3.0871176,0.7718 0.675623,0.5093 1.013439,1.2785 1.013448,2.3076 -9e-6,0.4261 -0.07017,0.8003 -0.210486,1.1225 -0.135135,0.3171 -0.314437,0.5925 -0.537906,0.8264 -0.223487,0.2339 -0.475549,0.4288 -0.756188,0.5847 -0.280655,0.1559 -0.561301,0.2806 -0.841941,0.3742 l 2.190606,3.4613 m -5.1140133,-3.8277 1.1225882,0 c 0.4677401,0 0.8575271,-0.052 1.1693631,-0.1559 0.311823,-0.104 0.561287,-0.2599 0.748392,-0.4678 0.187091,-0.2079 0.319618,-0.4677 0.397583,-0.7796 0.08315,-0.3118 0.124725,-0.6756 0.124732,-1.0914 -7e-6,-0.4261 -0.04418,-0.7873 -0.132528,-1.0836 -0.08836,-0.3014 -0.231281,-0.5457 -0.428766,-0.7328 -0.197499,-0.1923 -0.454758,-0.33 -0.771779,-0.4132 -0.311836,-0.088 -0.693828,-0.1325 -1.1459759,-0.1325 l -1.0836094,0 0,4.8568"
         style="font-size:15.9656992px"
         id="path3834" />
      <path
         d="m 18.489947,1040.2598 c -0.437765,0 -0.775686,0.1786 -1.013765,0.5357 -0.234243,0.3533 -0.372483,0.8717 -0.414722,1.5552 l 2.712972,0 c -4e-6,-0.311 -0.02304,-0.5952 -0.06912,-0.8525 -0.04608,-0.2573 -0.119045,-0.4781 -0.218881,-0.6624 -0.09984,-0.1843 -0.232325,-0.3264 -0.397442,-0.4262 -0.161284,-0.1 -0.360965,-0.1498 -0.599042,-0.1498 m 0.144,5.9213 c -0.426245,0 -0.810246,-0.071 -1.152005,-0.2131 -0.337923,-0.1459 -0.624004,-0.3571 -0.858244,-0.6336 -0.234242,-0.2765 -0.414722,-0.6144 -0.541442,-1.0138 -0.122881,-0.4032 -0.184322,-0.8601 -0.184321,-1.3709 -1e-6,-1.102 0.22656,-1.9315 0.679683,-2.4883 0.45312,-0.5568 1.098243,-0.8352 1.935369,-0.8352 0.380158,0 0.721919,0.06 1.025284,0.1786 0.303357,0.119 0.560638,0.2976 0.771844,0.5357 0.211195,0.2342 0.372476,0.528 0.483842,0.8812 0.115195,0.3495 0.172795,0.7565 0.172801,1.2212 l 0,0.5414 -3.928338,0 c 0.0077,0.4301 0.04992,0.8007 0.126721,1.1117 0.08064,0.3072 0.193919,0.5606 0.339841,0.7603 0.149759,0.1997 0.332159,0.3475 0.547203,0.4435 0.215038,0.092 0.462719,0.1383 0.743043,0.1383 0.203517,0 0.391678,-0.023 0.564483,-0.069 0.176636,-0.046 0.335997,-0.1076 0.478082,-0.1844 0.142076,-0.077 0.266876,-0.1632 0.374401,-0.2592 0.111356,-0.1 0.201596,-0.2035 0.270722,-0.311 0.05375,0.023 0.103675,0.071 0.14976,0.144 0.04991,0.073 0.07487,0.1594 0.07488,0.2592 -6e-6,0.119 -0.04225,0.2477 -0.126721,0.3859 -0.08449,0.1344 -0.213126,0.2592 -0.385922,0.3744 -0.172805,0.1152 -0.389766,0.2112 -0.650883,0.288 -0.257285,0.077 -0.560646,0.1152 -0.910084,0.1152"
         style="font-size:11.79653263px"
         id="path3836" />
      <path
         d="m 27.760394,1039.9891 c -6e-6,0.084 -0.01345,0.1651 -0.04032,0.2419 -0.02305,0.073 -0.05953,0.1383 -0.10944,0.1959 -0.04993,0.054 -0.115207,0.098 -0.195841,0.1324 -0.07681,0.031 -0.168967,0.046 -0.276481,0.046 -6e-6,-0.046 -0.0058,-0.092 -0.01728,-0.1382 -0.01152,-0.046 -0.03264,-0.088 -0.06336,-0.1267 -0.02689,-0.042 -0.06529,-0.075 -0.1152,-0.098 -0.04993,-0.027 -0.115206,-0.04 -0.195841,-0.04 -0.09985,0 -0.190086,0.012 -0.270721,0.035 -0.08065,0.023 -0.159366,0.06 -0.236161,0.1094 0.134395,0.1651 0.243836,0.361 0.328321,0.5875 0.08831,0.2228 0.132475,0.5031 0.132481,0.841 -6e-6,0.2918 -0.04417,0.5626 -0.132481,0.8122 -0.08833,0.2457 -0.220806,0.4588 -0.397442,0.6393 -0.172805,0.1805 -0.393606,0.3226 -0.662403,0.4263 -0.264965,0.1 -0.576006,0.1497 -0.933124,0.1497 -0.04608,0 -0.09792,0 -0.155521,0 -0.0576,-0 -0.115203,-0.01 -0.1728,-0.01 -0.0576,-0 -0.111363,-0.01 -0.161281,-0.012 -0.04992,-0.01 -0.09024,-0.013 -0.120961,-0.017 -0.0768,0.038 -0.149763,0.081 -0.218881,0.1267 -0.06912,0.046 -0.130562,0.098 -0.18432,0.1555 -0.04992,0.058 -0.09024,0.1229 -0.120961,0.1958 -0.03072,0.073 -0.04608,0.1537 -0.04608,0.242 -2e-6,0.096 0.01728,0.1728 0.05184,0.2304 0.0384,0.058 0.09024,0.1037 0.155521,0.1382 0.06528,0.031 0.142078,0.052 0.230401,0.063 0.09216,0.01 0.190078,0.012 0.293761,0.012 l 1.336326,0 c 0.353277,0 0.652798,0.044 0.898564,0.1325 0.245756,0.088 0.445437,0.2112 0.599043,0.3686 0.157435,0.1536 0.270715,0.3399 0.339841,0.5587 0.07296,0.2151 0.109435,0.4493 0.109441,0.7028 -6e-6,0.3379 -0.06337,0.6432 -0.190081,0.9158 -0.122886,0.2726 -0.312967,0.503 -0.570243,0.6912 -0.257286,0.192 -0.583687,0.3398 -0.979204,0.4435 -0.391686,0.1037 -0.854407,0.1555 -1.388166,0.1556 -0.821766,-10e-5 -1.436168,-0.1517 -1.843208,-0.4551 -0.407043,-0.3034 -0.610563,-0.7258 -0.610563,-1.2672 0,-0.2304 0.04032,-0.432 0.12096,-0.6048 0.08064,-0.1728 0.188161,-0.3206 0.322562,-0.4435 0.13824,-0.1229 0.29568,-0.2227 0.472322,-0.2995 0.176639,-0.077 0.36288,-0.1325 0.558722,-0.1671 -0.08064,-0.034 -0.159362,-0.081 -0.236161,-0.1382 -0.0768,-0.058 -0.145922,-0.1267 -0.207361,-0.2074 -0.06144,-0.081 -0.111361,-0.1728 -0.14976,-0.2765 -0.0384,-0.1036 -0.0576,-0.2188 -0.0576,-0.3456 -2e-6,-0.2342 0.06144,-0.4358 0.18432,-0.6048 0.122879,-0.1728 0.31872,-0.3398 0.587523,-0.5011 -0.168963,-0.069 -0.320643,-0.1632 -0.455042,-0.2822 -0.130562,-0.1229 -0.241922,-0.2612 -0.334082,-0.4148 -0.08832,-0.1574 -0.157441,-0.3283 -0.207361,-0.5126 -0.04608,-0.1843 -0.06912,-0.3744 -0.06912,-0.5702 -10e-7,-0.3418 0.04608,-0.6471 0.138241,-0.9159 0.09216,-0.2688 0.2304,-0.4973 0.414722,-0.6854 0.184319,-0.1882 0.41472,-0.3322 0.691203,-0.432 0.276479,-0.1 0.60096,-0.1498 0.973444,-0.1498 0.142078,0 0.282238,0.012 0.420482,0.035 0.138237,0.019 0.264957,0.048 0.380162,0.086 0.119036,0.034 0.224637,0.075 0.316801,0.1209 0.096,0.046 0.172797,0.094 0.230401,0.144 0.0576,-0.061 0.124796,-0.1286 0.201601,-0.2016 0.0768,-0.077 0.163196,-0.1459 0.259201,-0.2073 0.096,-0.065 0.199676,-0.1191 0.311042,-0.1613 0.115195,-0.042 0.238075,-0.063 0.368641,-0.063 0.119035,0 0.220795,0.017 0.305282,0.052 0.08831,0.031 0.161274,0.075 0.218881,0.1324 0.05759,0.054 0.09983,0.1191 0.12672,0.1959 0.03071,0.073 0.04607,0.1498 0.04608,0.2304 m -4.976662,7.1136 c -1e-6,0.1728 0.02304,0.3341 0.06912,0.4839 0.04608,0.1497 0.12672,0.2784 0.241921,0.3859 0.115199,0.1075 0.27072,0.192 0.466563,0.2534 0.195838,0.062 0.443519,0.092 0.743043,0.092 0.422399,0 0.76992,-0.036 1.042565,-0.1095 0.276477,-0.069 0.495357,-0.167 0.656642,-0.2937 0.161277,-0.1267 0.274557,-0.2784 0.339842,-0.4551 0.06527,-0.1728 0.09792,-0.3628 0.09792,-0.5702 -4e-6,-0.1805 -0.02689,-0.3302 -0.08064,-0.4493 -0.04992,-0.1152 -0.126725,-0.2073 -0.230401,-0.2765 -0.09984,-0.065 -0.224645,-0.1113 -0.374402,-0.1382 -0.149764,-0.027 -0.322565,-0.04 -0.518402,-0.04 l -1.157765,0 c -0.165123,0 -0.326404,0.015 -0.483842,0.046 -0.153603,0.027 -0.291843,0.081 -0.414722,0.1612 -0.119042,0.081 -0.215043,0.194 -0.288001,0.3399 -0.07296,0.1459 -0.109442,0.336 -0.109441,0.5702 m 0.685443,-5.328 c -2e-6,0.503 0.08256,0.8717 0.247681,1.1059 0.168959,0.2343 0.44352,0.3514 0.823684,0.3514 0.191998,0 0.353278,-0.029 0.483842,-0.086 0.134397,-0.058 0.243837,-0.1459 0.328322,-0.265 0.08448,-0.119 0.143996,-0.2707 0.17856,-0.455 0.0384,-0.1882 0.0576,-0.4109 0.0576,-0.6682 -4e-6,-0.5299 -0.08064,-0.9216 -0.241921,-1.175 -0.161285,-0.2535 -0.433926,-0.3802 -0.817924,-0.3802 -0.380164,0 -0.652805,0.1306 -0.817924,0.3917 -0.161282,0.2573 -0.241923,0.6509 -0.241921,1.1808"
         style="font-size:11.79653263px"
         id="path3838" />
      <path
         d="m 31.646887,1045.2708 3.079321,0 c 0.254655,0 0.470337,-0.034 0.647048,-0.1014 0.181893,-0.073 0.332611,-0.1689 0.452153,-0.2884 0.119527,-0.1196 0.213076,-0.2573 0.280648,-0.4132 0.06755,-0.1611 0.114329,-0.33 0.140323,-0.5067 l 0.109141,-0.6861 0.834145,0 -0.109141,2.7909 -8.559735,0 0,-0.6704 0.20269,0 c 0.176703,0 0.343012,-0.01 0.498928,-0.031 0.161111,-0.026 0.301434,-0.075 0.42097,-0.1481 0.119533,-0.073 0.213082,-0.1793 0.280648,-0.3196 0.07276,-0.1456 0.109138,-0.3353 0.10914,-0.5691 l 0,-7.8426 c -2e-6,-0.2494 -0.03378,-0.4495 -0.101345,-0.6002 -0.06756,-0.1507 -0.161114,-0.2651 -0.280647,-0.343 -0.119536,-0.083 -0.25986,-0.1378 -0.42097,-0.1638 -0.155917,-0.026 -0.324824,-0.039 -0.506724,-0.039 l -0.20269,0 0,-0.6705 8.045216,0 0.07796,2.7909 -0.826349,0 -0.07796,-0.686 c -0.0208,-0.1767 -0.06237,-0.343 -0.124732,-0.4989 -0.05718,-0.1611 -0.142929,-0.3015 -0.25726,-0.421 -0.109147,-0.1195 -0.249471,-0.2131 -0.42097,-0.2807 -0.166316,-0.073 -0.369006,-0.1091 -0.608069,-0.1091 l -2.681738,0 0,4.2487 3.851101,0 0,0.7796 -3.851101,0 0,4.7788"
         style="font-size:15.9656992px"
         id="path3840" />
      <path
         d="m 42.384287,1040.5824 c -4e-6,-0.1421 -0.06144,-0.2343 -0.184321,-0.2765 -0.119044,-0.046 -0.268805,-0.069 -0.449282,-0.069 l -0.03456,0 0,-0.4954 2.580492,0 0,0.4954 -0.103681,0 c -0.115207,0 -0.220807,0.01 -0.316801,0.029 -0.09217,0.019 -0.184327,0.056 -0.276481,0.1094 -0.08833,0.054 -0.180487,0.1306 -0.276482,0.2304 -0.09601,0.1 -0.203526,0.2285 -0.322561,0.3859 l -1.215366,1.6186 1.733768,2.3328 c 0.172795,0.2304 0.335996,0.3936 0.489602,0.4896 0.157435,0.092 0.309115,0.1383 0.455042,0.1383 l 0.155521,0 0,0.4953 -3.047054,0 0,-0.4953 0.0576,0 c 0.472318,0 0.708478,-0.1306 0.708483,-0.3917 -5e-6,-0.042 -0.0058,-0.085 -0.01728,-0.1267 -0.01152,-0.046 -0.03457,-0.098 -0.06912,-0.1556 -0.03456,-0.061 -0.08064,-0.1344 -0.13824,-0.2188 -0.0576,-0.084 -0.132485,-0.1882 -0.224641,-0.3111 l -0.789124,-1.0598 -0.823683,1.152 c -0.03456,0.046 -0.07104,0.1 -0.109441,0.1613 -0.0384,0.061 -0.07296,0.1248 -0.10368,0.19 -0.03072,0.065 -0.05568,0.1325 -0.07488,0.2016 -0.0192,0.065 -0.0288,0.1287 -0.0288,0.1901 -2e-6,0.1344 0.05568,0.2304 0.167041,0.288 0.111358,0.054 0.299519,0.081 0.564483,0.081 l 0.03456,0 0,0.4953 -2.810893,0 0,-0.4953 0.109441,0 c 0.14208,0 0.26688,-0.012 0.374401,-0.035 0.10752,-0.023 0.20928,-0.063 0.305282,-0.121 0.096,-0.058 0.191999,-0.1344 0.288001,-0.2304 0.096,-0.1 0.2016,-0.2227 0.316801,-0.3686 l 1.486087,-1.9239 -1.486087,-2.0275 c -0.172802,-0.2035 -0.341762,-0.359 -0.506882,-0.4665 -0.161281,-0.1076 -0.330242,-0.1613 -0.506882,-0.1613 l -0.155521,0 0,-0.4954 2.995214,0 0,0.4954 -0.03456,0 c -0.134403,0 -0.245764,0.01 -0.334081,0.029 -0.08832,0.015 -0.157444,0.04 -0.207361,0.075 -0.04992,0.031 -0.08448,0.067 -0.103681,0.1094 -0.0192,0.042 -0.0288,0.086 -0.0288,0.1325 -2e-6,0.081 0.02304,0.1613 0.06912,0.2419 0.04992,0.077 0.119037,0.1766 0.207361,0.2995 l 0.777603,1.0599 0.610563,-0.8813 c 0.08832,-0.1344 0.159356,-0.2611 0.213121,-0.3802 0.05376,-0.119 0.08064,-0.2323 0.08064,-0.3398"
         style="font-size:11.79653263px"
         id="path3842" />
    </g>
  </g>
</svg>
